<svg width="65" height="80" viewBox="0 0 65 80" fill="none" xmlns="http://www.w3.org/2000/svg">
<path d="M43.9234 12.7C46.6174 9.2364 48.5416 4.6182 47.9643 0C43.9234 0.192425 39.1128 2.69395 36.2264 5.96517C33.7249 8.85155 31.4158 13.6622 31.9931 18.0879C36.6113 18.6652 41.037 16.1637 43.9234 12.7ZM47.9643 19.2425C41.4219 18.8576 35.8416 22.8986 32.7628 22.8986C29.684 22.8986 24.8733 19.4349 19.6779 19.4349C12.943 19.6273 6.7854 23.2834 3.32175 29.441C-3.60555 41.5638 1.3975 59.4593 8.3248 69.273C11.596 74.0836 15.6369 79.4715 20.8324 79.2791C25.8355 79.0866 27.7597 76.0078 33.7249 76.0078C39.6901 76.0078 41.4219 79.2791 46.8098 79.0866C52.1977 78.8942 55.6613 74.276 58.9326 69.273C62.7811 63.6926 64.3205 58.3047 64.3205 58.1123C64.128 57.9199 53.7371 54.0714 53.7371 42.1411C53.5447 32.135 61.8189 27.3243 62.2038 27.1319C57.778 20.2046 50.4659 19.4349 47.9643 19.2425Z" fill="white"/>
</svg>
