<svg width="279" height="53" viewBox="0 0 279 53" fill="none" xmlns="http://www.w3.org/2000/svg">
<path d="M204.486 1.28166C204.02 1.28606 203.57 1.45628 203.213 1.76328C202.855 2.07027 202.613 2.49498 202.527 2.96489C202.212 4.69973 202.082 6.46478 202.141 8.22851C202.05 11.1437 201.983 17.1982 201.983 20.4634C201.983 22.9601 201.983 26.38 202.052 30.5393C202.118 35.8527 202.297 37.7573 202.812 38.6928C202.961 39.0143 203.2 39.2835 203.498 39.467C203.795 39.6505 204.139 39.7402 204.486 39.7249C204.94 39.7114 205.375 39.535 205.714 39.2263C206.054 38.9176 206.278 38.4964 206.346 38.036C206.683 36.2967 206.823 34.5231 206.762 32.7508C206.81 32.0612 206.818 31.258 206.829 30.1453L206.835 29.48L206.904 26.4926C206.969 23.4423 206.969 22.1278 206.969 20.4634C206.969 18.8909 206.969 17.5332 206.905 14.4867C206.835 8.91719 206.762 7.30996 206.638 4.9493C206.455 1.66541 205.324 1.28072 204.486 1.28072V1.28166ZM203.864 41.0093C203.012 41.0116 202.172 40.8025 201.416 40.4C200.66 39.9974 200.01 39.4134 199.521 38.6975C198.366 37.0326 197.555 35.1435 197.137 33.1458C196.241 28.9855 195.776 24.7399 195.748 20.4793C195.748 14.4745 196.687 8.51937 198.258 4.55148C199.364 1.6579 201.407 0 203.864 0C204.706 0.00513726 205.535 0.21866 206.279 0.622442C207.024 1.02622 207.663 1.60834 208.141 2.31937C209.262 3.99384 210.06 5.87285 210.493 7.85509C211.432 11.9938 211.923 16.2263 211.957 20.4756C211.957 26.4579 210.96 32.732 209.414 36.4616C208.189 39.4359 206.269 41.0093 203.863 41.0093H203.864ZM84.7011 51.2598H68.573V50.0607H71.176V1.18689H68.573V0H84.7834V14.5589H83.6219V14.3366C83.0557 8.47996 82.2682 5.97482 81.2622 4.01574C80.118 1.90466 79.1129 1.35109 76.1404 1.20097V22.8278C78.148 22.7002 79.3205 21.0751 79.765 12.8654L79.8062 12.6402H80.9357V35.2785H79.8052L79.7641 35.0476L79.6726 33.978C79.4284 29.8863 79.0745 27.4215 78.5275 25.9869C78.3975 25.4346 78.0916 24.9426 77.6582 24.5887C77.2248 24.2349 76.6888 24.0395 76.1349 24.0334V50.0513C78.7873 49.798 80.1043 48.8672 81.1652 46.4934C82.5134 43.5661 83.1774 40.0195 83.4517 34.2633L83.4728 34.0409H84.7011V51.2588V51.2598ZM114.385 51.2598H104.2V50.0607H106.908V25.1669L101.846 1.18689H99.7426V0H108.975V1.18689H106.752L111.124 22.0706C111.848 18.5991 113.973 8.34204 113.991 8.25009C114.298 6.96771 114.49 5.65941 114.566 4.34131C114.566 2.5211 113.784 1.66165 111.678 1.17001L111.475 1.14561V0H119.697V1.13717L119.527 1.17094C117.25 1.78456 116.202 3.52785 115.211 8.34673L111.764 25.1669V50.0607H114.384V51.2588L114.385 51.2598ZM176.514 51.2598H166.383V50.0607H168.981V1.38393C167.776 1.90091 166.835 3.24731 166.105 5.49912C165.193 8.66954 164.671 11.9444 164.55 15.2476V15.4897H163.327V0H179.536V15.4906H178.427L178.403 15.272V15.2654C178.382 15.12 178.311 14.6462 178.311 14.6387C177.836 6.93841 176.275 2.21616 173.921 1.34265V50.0607H176.51V51.2588L176.514 51.2598ZM277.957 51.2598H261.83V50.0607H264.444V1.18689H261.83V0H278.038V14.5589H276.893L276.869 14.3366C276.334 8.46589 275.542 5.9645 274.521 4.01574C273.38 1.90372 272.375 1.35109 269.399 1.20097V22.8278C271.399 22.7011 272.575 21.077 273.053 12.8654V12.6402H274.185V35.2785H273.053V35.0476L272.974 33.978C272.725 29.8788 272.37 27.4149 271.822 25.9869C271.687 25.4313 271.376 24.9376 270.937 24.5838C270.498 24.23 269.957 24.0364 269.399 24.0334V50.0513C272.051 49.7961 273.412 48.8316 274.429 46.4934C275.801 43.5567 276.465 40.0138 276.731 34.2633V34.0409H277.955V51.2588L277.957 51.2598ZM39.8985 1.28166V23.068C41.5795 22.9742 42.8691 22.5904 43.6977 21.0564C44.5264 19.5223 44.8867 16.8896 44.8867 12.4741C44.8867 7.87667 44.5108 5.09286 43.6667 3.44809C43.3045 2.75701 42.7579 2.1861 42.0909 1.80225C41.4238 1.41839 40.664 1.23749 39.9003 1.28072L39.8985 1.28166ZM42.5289 51.2617H32.4134V50.0607H35.1097V1.18689H32.4171V0H39.4064C43.224 0 45.3806 0.815345 47.0982 2.9086C49.1158 5.32273 50.0963 8.50999 50.0963 12.6524C50.0963 18.494 47.593 22.4722 43.0484 23.8552C45.9184 24.5307 47.8043 25.9625 48.8287 28.2303C49.5237 29.967 49.757 31.7581 49.757 35.3282V48.5895C49.757 49.6891 50.1018 50.0607 51.1243 50.0607H52.3663V51.2588H47.2281C45.6083 51.2588 44.8501 50.4698 44.8501 48.7762V30.8424C44.8501 28.4264 44.5236 26.9092 43.792 25.9231C43.0603 24.937 41.9344 24.4763 40.1098 24.3947V50.0607H42.5289V51.2607V51.2617ZM8.28444 52.5424C6.27232 52.5424 4.58855 50.9042 3.29073 47.6728C1.32251 43.02 0 34.2933 0 25.9578C0 16.4946 1.56397 7.58581 3.98583 3.26513C5.21322 1.00675 6.52293 0 8.2314 0C9.66732 0 10.4392 0.729025 11.4051 3.00242C11.6383 3.59352 11.8331 3.64325 12.0133 3.64325C12.4212 3.64325 12.6206 3.25669 12.7971 0.860381V0.61925H13.9797V16.1005H12.8291L12.7943 15.8828C12.2943 11.6362 11.3866 7.45063 10.0844 3.38711C9.57677 1.9891 8.95759 1.18689 8.38688 1.18689C7.35064 1.18689 6.77078 2.20678 6.38482 4.70817C6.18231 6.40543 6.07939 8.11363 6.0766 9.82355L6.06837 10.0863C5.96776 11.5152 5.94033 12.719 5.91106 14.1133L5.90191 14.5045L5.83423 16.5368V24.8206C5.83423 36.3162 5.98514 43.7265 6.29153 47.4758C6.53299 49.8533 7.3168 51.2729 8.38688 51.2729C9.75878 51.2729 10.4603 49.0502 10.4603 44.6676V29.6442H7.6616V28.4479H17.4561V29.6433H15.2098C15.2098 37.9168 14.7616 47.8548 11.2834 51.2795C10.8916 51.6857 10.424 52.0069 9.90864 52.2238C9.39326 52.4408 8.84058 52.5491 8.28353 52.5424H8.28444ZM141.849 52.5424C139.987 52.5424 138.706 51.6811 137.124 49.3645C136.21 48.0219 136.125 48.0219 135.775 48.0219C135.122 48.0219 134.826 48.5632 134.678 51.9203L134.661 52.169H133.493V33.7641H134.661L134.678 33.9799C135.032 37.592 135.747 41.1573 136.811 44.6197C138.183 48.8222 139.732 50.7794 141.675 50.7794C143.821 50.7794 144.955 48.8438 144.955 45.1836C144.955 42.6438 144.279 39.7915 142.76 35.9324C141.435 32.555 139.932 29.254 138.257 26.0441C134.675 18.9275 133.41 14.8132 133.41 10.3218C133.41 4.24467 135.992 0.000938257 139.69 0.000938257C141.35 0.000938257 142.709 0.838801 144.087 2.71719C144.093 2.72564 144.71 3.56162 144.715 3.57663C145.032 4.03357 145.203 4.07203 145.339 4.07203C145.714 4.07203 145.876 3.60947 146.03 1.00581V0.390315H147.219V16.0367H146.062L146.028 15.8162C144.839 6.68508 142.621 1.65602 139.772 1.65602C139.433 1.65238 139.096 1.71841 138.782 1.85021C138.468 1.98202 138.182 2.17694 137.943 2.42352C136.962 3.62313 136.475 5.16752 136.585 6.72918C136.585 10.592 137.809 13.8665 142.82 23.4133C145.272 27.9638 146.375 30.544 147.192 33.6337C147.919 36.0191 148.315 38.4976 148.368 40.9962C148.368 45.3 147.187 49.053 145.207 51.0355C144.325 51.9729 143.118 52.5145 141.848 52.5424H141.849ZM203.843 52.5424C200.611 52.5424 197.949 51.8059 197.218 50.709C197.06 50.4981 196.981 50.2354 196.997 49.9697C196.997 48.0932 201.091 47.4157 203.843 47.4157C207.087 47.4157 209.757 48.142 210.486 49.2219C210.628 49.4457 210.706 49.7056 210.712 49.9725C210.707 50.236 210.628 50.4924 210.486 50.7118C209.755 51.8058 207.086 52.5424 203.843 52.5424ZM243.348 52.5424H242.145L231.616 11.0527V41.6774C231.616 42.5218 231.707 44.8374 231.793 46.0928C231.699 47.3352 231.934 48.5806 232.472 49.6976C232.74 50.0776 233.092 50.3875 233.499 50.602C233.906 50.8165 234.356 50.9297 234.813 50.9323L235.008 50.9577V52.0976H226.92V50.9577L227.155 50.9323C229.927 50.4557 230.469 49.6713 230.469 41.7374V2.45823H227.827V1.28166H234.503L242.095 32.2882V8.99507C242.095 3.92098 241.63 2.94237 238.991 2.44979L238.797 2.41601V1.28072H246.869V2.43384L246.646 2.44979C244.052 2.79131 243.348 3.97258 243.348 11.6353V52.5424V52.5424Z" fill="white"/>
</svg>
