<svg width="95" height="95" viewBox="0 0 95 95" fill="none" xmlns="http://www.w3.org/2000/svg">
<path fill-rule="evenodd" clip-rule="evenodd" d="M48.6893 0.0779827C48.2178 0.115668 47.7458 0.153402 47.2732 0.156123C45.4062 5.50103 43.4994 10.8315 41.5927 16.1618C40.0942 20.3508 38.5959 24.5396 37.1169 28.7352C38.2064 28.7544 39.2959 28.7495 40.3852 28.7447C41.7406 28.7386 43.0957 28.7325 44.4499 28.773C46.2359 28.8459 48.1084 29.5914 49.0946 31.1526C50.2237 32.9163 50.1616 35.1771 49.4512 37.0894C47.9975 41.1783 46.5375 45.2651 45.0775 49.3521C43.1997 54.609 41.3216 59.8662 39.4565 65.1285C37.8699 65.1502 36.2834 65.1468 34.6969 65.1434C33.3491 65.1405 32.0013 65.1375 30.6535 65.1501C30.565 65.1483 30.4756 65.1491 30.386 65.15C30.063 65.1531 29.7369 65.1563 29.4323 65.0337C32.1215 57.6181 34.7657 50.1842 37.4095 42.7512C38.4288 39.8856 39.448 37.0202 40.4697 34.1561C39.6121 34.1428 38.7546 34.1452 37.897 34.1475C37.0037 34.1499 36.1104 34.1523 35.2171 34.1372C34.9852 34.6171 34.813 35.1229 34.6407 35.6289C34.6123 35.7124 34.5838 35.7959 34.5551 35.8793C33.1423 39.8521 31.7242 43.8234 30.3061 47.7949C28.3342 53.3171 26.3622 58.8397 24.4039 64.3668C24.3514 64.447 24.3205 64.5583 24.2892 64.6716C24.2254 64.9018 24.1594 65.1402 23.9041 65.142C22.5612 65.1473 21.2177 65.1456 19.8741 65.144C18.4225 65.1422 16.9709 65.1404 15.52 65.1474C15.4037 65.1462 15.2868 65.1483 15.1698 65.1504C14.7811 65.1575 14.3909 65.1646 14.015 65.0504C17.8125 54.5195 21.5669 43.9734 25.3213 33.4275C29.1452 22.6861 32.969 11.945 36.8383 1.22032C21.8587 4.42371 8.97315 15.6302 3.40445 29.8617C1.12131 35.496 0.126991 41.5814 0 47.6397C0.156713 50.5487 0.36206 53.4658 0.926767 56.3316C2.72896 65.8742 7.60057 74.8007 14.6175 81.513C20.4429 87.1419 27.749 91.215 35.59 93.2489C41.3518 77.1421 47.0888 61.0257 52.8258 44.9095C54.6889 39.6756 56.552 34.4417 58.416 29.2081C58.4442 29.1505 58.4835 29.071 58.5255 28.9858C58.5958 28.8433 58.674 28.6849 58.7213 28.5869C61.6311 28.6153 64.5418 28.6116 67.453 28.6079C69.2374 28.6056 71.022 28.6034 72.8066 28.6085C73.1712 28.6149 73.5383 28.6102 73.9059 28.6055C75.0906 28.5905 76.282 28.5754 77.4242 28.9299C79.1483 29.3945 80.753 30.6342 81.2826 32.3872C81.6743 33.7701 81.4014 35.2421 80.9097 36.5629C78.8288 42.6365 76.6632 48.6801 74.498 54.7227C73.5453 57.3813 72.5927 60.0398 71.6474 62.7005C70.8801 64.9691 68.5726 66.3901 66.2379 66.4711C64.4088 66.5049 62.5789 66.4988 60.749 66.4927C58.9191 66.4867 57.0892 66.4806 55.2601 66.5143C52.259 74.8732 49.2838 83.241 46.3092 91.6073C45.9524 92.611 45.5955 93.6147 45.2386 94.6183C45.8071 94.8603 46.3999 94.8206 46.9953 94.7807C47.3108 94.7595 47.6269 94.7383 47.9406 94.759C48.8955 94.8326 49.8457 94.7321 50.7951 94.6317C51.2044 94.5885 51.6136 94.5452 52.0229 94.5159C60.9448 93.6972 69.591 90.2427 76.6376 84.7191C82.2925 80.3111 86.9377 74.6066 90.0744 68.1593C92.8247 62.6114 94.3678 56.5017 94.8106 50.3407C94.6026 48.2016 94.665 46.0435 94.7647 43.8989C94.1595 35.7959 91.4767 27.8441 86.9456 21.0916C82.5038 14.4525 76.3812 8.91277 69.2643 5.26912C63.7629 2.37365 57.6649 0.674715 51.4801 0.126412C50.5522 -0.0709457 49.6219 0.00342327 48.6893 0.0779827ZM67.5318 34.0736C67.2378 34.0553 66.9376 34.0367 66.7409 34.259C65.1521 38.6955 63.5714 43.1346 61.9907 47.5735C60.3803 52.0959 58.77 56.618 57.1515 61.1367C57.5817 61.1393 58.0127 61.1458 58.4439 61.1523C59.7755 61.1725 61.1098 61.1927 62.4365 61.0988C64.2216 55.9098 66.0727 50.744 67.9237 45.5784C69.2947 41.7525 70.6656 37.9266 72.0097 34.0915C71.3017 34.076 70.594 34.0782 69.8863 34.0803C69.2376 34.0823 68.589 34.0842 67.9403 34.0726C67.8138 34.0911 67.6735 34.0824 67.5318 34.0736Z" fill="white"/>
</svg>
