<svg width="304" height="84" viewBox="0 0 304 84" fill="none" xmlns="http://www.w3.org/2000/svg">
<path d="M90.2389 60.0507C90.2389 52.9608 94.9914 47.7323 101.727 47.7323C104.86 47.7323 107.16 48.6452 108.815 49.7241V56.1619H108.756C107.008 54.6918 104.813 53.6129 102.478 53.6129C99.1807 53.6129 96.822 56.2331 96.822 59.9914C96.822 64.0462 99.2746 66.4648 102.549 66.4648C105.107 66.4648 107.301 65.4215 109.12 64.0462L109.249 64.1054L108.533 70.484C106.749 71.5273 104.555 72.3098 101.422 72.3098C95.144 72.3098 90.2624 67.603 90.2624 60.0507M169.224 48.1235H175.561V71.9185H169.224V48.1235ZM192.87 71.9185H182.707V48.1235H192.764C198.009 48.1235 200.884 50.6133 200.884 54.4309C200.884 56.6243 199.746 58.4146 197.646 59.5646C200.039 60.5724 201.659 62.3745 201.659 65.0895C201.659 69.4644 197.939 71.9185 192.858 71.9185M188.727 57.8336H191.837C193.785 57.8336 194.911 56.8496 194.911 55.249C194.911 53.6484 193.785 52.9015 191.966 52.9015H188.727V57.8336ZM192.154 67.2117C194.219 67.2117 195.451 66.2277 195.451 64.5915C195.451 62.825 194.219 61.9832 192.06 61.9832H188.727V67.2117H192.154ZM217.418 71.9185H207.256V48.1235H217.313C222.558 48.1235 225.433 50.6133 225.433 54.4309C225.433 56.6243 224.307 58.4146 222.194 59.5646C224.588 60.5724 226.208 62.3745 226.208 65.0895C226.208 69.4644 222.488 71.9185 217.407 71.9185M213.276 57.8336H216.386C218.322 57.8336 219.46 56.8496 219.46 55.249C219.46 53.6484 218.334 52.9015 216.515 52.9015H213.276V57.8336ZM216.714 67.2117C218.78 67.2117 220.012 66.2277 220.012 64.5915C220.012 62.825 218.78 61.9832 216.62 61.9832H213.288V67.2117H216.714ZM231.476 48.1235H247.107L247.952 53.518H237.79V57.5372H246.332V62.3033H237.79V66.5241H248.046L247.201 71.9185H231.476V48.1235ZM281.63 48.1235H288.225L297.73 60.6672L297.659 48.1235H303.843V71.9778H298.704L287.732 57.5609L287.802 71.9067H281.618V48.1117L281.63 48.1235ZM164.249 71.9185L157.22 63.4889C160.071 62.2322 161.855 59.7899 161.855 56.3279C161.855 50.803 158.006 48.1235 152.08 48.1235H143.35V71.9185H149.722V64.4493H150.684L156.715 71.9185H164.249ZM149.628 59.8254V53.2928H151.928C154.251 53.2928 155.612 54.4072 155.612 56.4583C155.612 58.5094 154.216 59.8254 151.857 59.8254H149.628ZM259.522 67.603L258.032 71.9185H251.531L260.519 48.0643H267.959L276.948 71.9185H270.447L268.957 67.603H259.51H259.522ZM267.408 62.576L264.239 53.5892L261.071 62.576H267.408ZM120.972 67.603L119.482 71.9185H112.981L121.969 48.0643H129.409L138.398 71.9185H131.897L130.406 67.603H120.96H120.972ZM128.857 62.576L125.689 53.5892L122.521 62.576H128.857ZM125.466 36.7181C118.508 36.7181 113.755 31.3947 113.755 24.3641C113.755 17.3335 118.637 11.939 125.501 11.939C132.366 11.939 137.212 17.2623 137.212 24.293C137.212 31.3236 132.366 36.7062 125.466 36.7062M125.431 17.6655C122.427 17.6655 120.256 20.3093 120.256 24.3048C120.256 28.3003 122.392 31.0035 125.501 31.0035C128.611 31.0035 130.711 28.3833 130.711 24.3641C130.711 20.3449 128.505 17.6655 125.443 17.6655M153.277 27.0198V36.232H146.94V27.0436L138.761 12.437H145.978L150.285 21.0918L154.591 12.437H161.444L153.289 27.008L153.277 27.0198ZM190.124 12.437H196.496V30.5411H206.705L205.813 36.232H190.124V12.437ZM111.525 36.232L104.496 27.8023C107.348 26.5456 109.132 24.1033 109.132 20.6413C109.132 15.1164 105.283 12.437 99.3684 12.437H90.6379V36.232H97.0098V28.7627H97.972L104.004 36.232H111.537H111.525ZM96.9042 24.1388V17.6062H99.2041C101.528 17.6062 102.889 18.7206 102.889 20.7717C102.889 22.8228 101.504 24.1388 99.1337 24.1388H96.9042ZM168.18 31.9164L166.69 36.232H160.189L169.177 12.3777H176.617L185.606 36.232H179.105L177.615 31.9164H168.168H168.18ZM176.066 26.8894L172.897 17.9026L169.729 26.8894H176.066ZM2.34692 26.4626L0 1.94439L14.3514 12.4132L9.27032 18.1278L17.3437 23.7357L29.4538 18.2701L24.7834 12.188L37.2104 0L49.6373 12.1761L44.9669 18.2583L57.077 23.7239L65.1504 18.116L60.0693 12.4014L74.409 1.94439L72.0621 26.4626H2.34692ZM2.76936 30.8849L3.54384 39.0418H29.3951V67.271H16.8157C14.0111 67.271 11.582 65.0895 11.582 62.5404C11.582 59.9914 14.2575 57.7862 17.2029 56.0908L4.30659 47.0684L6.67698 71.9304L37.1986 83.656L67.7203 71.9304L70.0907 47.0684L57.1943 56.0908C60.1397 57.798 62.8152 60.0033 62.8152 62.5404C62.8152 65.0776 60.3862 67.271 57.5816 67.271H45.0139V39.0418H70.8534L71.6396 30.8849H2.76936Z" fill="white"/>
</svg>
