<svg width="319" height="49" viewBox="0 0 319 49" fill="none" xmlns="http://www.w3.org/2000/svg">
<g clip-path="url(#clip0_6_1816)">
<mask id="mask0_6_1816" style="mask-type:luminance" maskUnits="userSpaceOnUse" x="-25" y="-25" width="368" height="99">
<path d="M-24.3602 -24.3666H342.486V73.0823H-24.3602V-24.3666Z" fill="white"/>
</mask>
<g mask="url(#mask0_6_1816)">
<path d="M302.016 21.3989V28.0311H306.677V34.6114C306.692 35.1994 306.66 35.8336 306.559 36.341C306.373 37.5684 305.207 39.6583 301.899 39.6583C298.61 39.6583 297.465 37.5684 297.267 36.341C297.183 35.8336 297.147 35.1994 297.147 34.6114V13.8277C297.147 13.0925 297.197 12.2878 297.353 11.6788C297.579 10.5711 298.561 8.38661 301.874 8.38661C305.353 8.38661 306.221 10.6896 306.42 11.6788C306.551 12.334 306.559 13.4329 306.559 13.4329V15.9567H318.011V14.4647C318.011 14.4647 318.063 12.908 317.924 11.4552C317.063 2.92454 310.035 0.225625 301.975 0.225625C293.901 0.225625 287.015 2.94965 286.012 11.4552C285.921 12.2329 285.783 13.632 285.783 14.4647V33.5837C285.783 34.4164 285.81 35.061 285.964 36.5828C286.711 44.8786 293.901 47.8193 301.943 47.8193C310.035 47.8193 317.175 44.8786 317.935 36.5828C318.07 35.061 318.084 34.4164 318.102 33.5837V21.3989H302.016ZM223.049 1.44896H211.548V35.0908C211.566 35.6771 211.548 36.3358 211.447 36.8187C211.207 37.948 210.25 40.1214 207.076 40.1214C203.944 40.1214 202.962 37.948 202.74 36.8187C202.625 36.3358 202.611 35.6771 202.625 35.0908V1.44896H191.128V34.0468C191.113 34.887 191.179 36.6038 191.229 37.0534C192.022 45.5478 198.717 48.3057 207.076 48.3057C215.452 48.3057 222.143 45.5478 222.951 37.0534C223.015 36.6038 223.098 34.887 223.049 34.0468V1.44896ZM117.375 1.44896L111.638 36.9962L105.904 1.44896H87.3525L86.3686 46.9241H97.7341L98.0419 4.8264L105.862 46.9241H117.393L125.22 4.8264L125.529 46.9241H136.923L135.906 1.44896H117.375ZM48.6871 1.44896L40.2633 46.9241H52.5474L58.8953 4.8264L65.0908 46.9241H77.2896L68.9009 1.44896H48.6871ZM263.243 38.0619L252.534 1.44896H235.658V46.45H246.822L246.173 8.66573L257.674 46.45H273.859V1.44896H262.623L263.243 38.0619ZM159.982 13.284C159.78 12.3859 159.838 11.4318 159.943 10.9331C160.268 9.47739 161.246 7.88969 164.064 7.88969C166.691 7.88969 168.231 9.52702 168.231 11.9842V14.7649H179.442V11.5953C179.442 1.79698 170.657 0.257742 164.297 0.257742C156.287 0.257742 149.745 2.89827 148.55 10.2709C148.235 12.2773 148.156 14.0583 148.659 16.331C150.607 25.5237 166.611 28.1905 168.934 34.0041C169.344 35.1054 169.226 36.5098 169.017 37.3372C168.669 38.8502 167.651 40.3719 164.634 40.3719C161.805 40.3719 160.101 38.7451 160.101 36.2931L160.098 31.9289H148.03V35.398C148.03 45.4503 155.904 48.4832 164.384 48.4832C172.506 48.4832 179.214 45.7078 180.291 38.1845C180.804 34.2973 180.417 31.7654 180.211 30.8118C178.33 21.3831 161.273 18.547 159.982 13.284ZM12.0888 13.1725C11.8686 12.2557 11.92 11.2882 12.0426 10.7836C12.3533 9.33491 13.3372 7.71918 16.2049 7.71918C18.8647 7.71918 20.4308 9.37228 20.4308 11.8493V14.6638H31.7736V11.4692C31.7736 1.57684 22.8547 0.000228046 16.425 0.000228046C8.34754 0.000228046 1.74741 2.68163 0.539845 10.1074C0.209342 12.1459 0.152682 13.9392 0.630335 16.2369C2.59934 25.5343 18.7613 28.2227 21.1128 34.1057C21.5531 35.1994 21.4199 36.6038 21.2016 37.4633C20.8284 38.9921 19.8025 40.5354 16.7602 40.5354C13.9194 40.5354 12.2202 38.8805 12.2202 36.3947L12.2044 32.0188H0.00146484V35.4961C0.00146484 45.6634 7.98667 48.7209 16.533 48.7209C24.7495 48.7209 31.4968 45.9209 32.5975 38.3106C33.1446 34.3878 32.7341 31.8348 32.5496 30.8667C30.6303 21.3224 13.3833 18.4956 12.0888 13.1725Z" fill="white"/>
</g>
</g>
<defs>
<clipPath id="clip0_6_1816">
<rect width="318.101" height="48.7207" fill="white"/>
</clipPath>
</defs>
</svg>
