<svg width="272" height="82" viewBox="0 0 272 82" fill="none" xmlns="http://www.w3.org/2000/svg">
<path d="M40.7519 0C18.2457 0 0 18.1929 0 40.6345C0 63.0771 18.2457 81.2686 40.7519 81.2686C63.2606 81.2686 81.5044 63.0771 81.5044 40.6345C81.5044 18.1944 63.2606 0.00194093 40.7515 0.00194093L40.7519 0ZM59.4405 58.6066C58.7106 59.8003 57.1436 60.1788 55.9465 59.4461C46.3784 53.6184 34.3333 52.2986 20.148 55.5303C18.781 55.8408 17.4185 54.9868 17.107 53.6233C16.7941 52.2598 17.6472 50.9011 19.0175 50.5906C34.5411 47.0542 47.8568 48.5768 58.5987 55.1227C59.7958 55.8554 60.1753 57.413 59.4405 58.6066ZM64.4285 47.5423C63.5088 49.033 61.5525 49.5036 60.0585 48.5865C49.1045 41.8728 32.4067 39.9285 19.4502 43.8502C17.7698 44.3563 15.9951 43.412 15.4851 41.7394C14.979 40.0639 15.9265 38.2976 17.6039 37.7881C32.4038 33.3104 50.8028 35.4794 63.3822 43.1873C64.8762 44.1044 65.3482 46.0546 64.4285 47.5423ZM64.8567 36.0209C51.7226 28.2421 30.0529 27.5269 17.5129 31.3219C15.4992 31.9309 13.3697 30.7974 12.7595 28.7895C12.1492 26.7806 13.285 24.6587 15.3002 24.0482C29.6952 19.6908 53.6253 20.5327 68.7469 29.4838C70.562 30.5557 71.1557 32.8882 70.0802 34.6919C69.0096 36.4979 66.6641 37.0933 64.8587 36.0209H64.8567ZM110.873 37.5115C103.836 35.8385 102.585 34.6642 102.585 32.1968C102.585 29.8657 104.785 28.2969 108.06 28.2969C111.233 28.2969 114.376 29.4882 117.676 31.9406C117.773 32.0148 117.9 32.0444 118.021 32.025C118.148 32.0066 118.255 31.9391 118.328 31.8377L121.763 27.0086C121.904 26.8097 121.866 26.5355 121.676 26.3837C117.749 23.2427 113.33 21.7157 108.162 21.7157C100.566 21.7157 95.2566 26.2619 95.2566 32.7664C95.2566 39.7417 99.8358 42.2115 107.748 44.118C114.478 45.6645 115.617 46.96 115.617 49.2756C115.617 51.8425 113.32 53.4389 109.622 53.4389C105.515 53.4389 102.162 52.056 98.4148 48.8243C98.3223 48.7418 98.1958 48.7079 98.079 48.7127C97.9525 48.7224 97.8406 48.7806 97.7627 48.8728L93.9086 53.4437C93.748 53.6378 93.7675 53.9193 93.9524 54.0843C98.3126 57.9661 103.675 60.0138 109.466 60.0138C117.651 60.0138 122.941 55.5545 122.941 48.6496C122.956 42.8234 119.457 39.5966 110.887 37.5179L110.873 37.5115ZM141.462 30.5921C137.915 30.5921 135.005 31.9857 132.601 34.8413V31.6271C132.601 31.3733 132.396 31.1666 132.143 31.1666H125.841C125.588 31.1666 125.384 31.3733 125.384 31.6271V67.3409C125.384 67.5932 125.588 67.8018 125.841 67.8018H132.143C132.396 67.8018 132.601 67.5932 132.601 67.3409V56.0689C135.005 58.7522 137.915 60.0672 141.462 60.0672C148.056 60.0672 154.733 55.0062 154.733 45.3311C154.742 35.6541 148.066 30.5916 141.467 30.5916L141.462 30.5921ZM147.404 45.3311C147.404 50.2558 144.363 53.6961 140.002 53.6961C135.696 53.6961 132.445 50.1005 132.445 45.3311C132.445 40.5612 135.696 36.9666 140.002 36.9666C144.29 36.9661 147.404 40.4836 147.404 45.3311ZM171.838 30.5921C163.346 30.5921 156.694 37.1117 156.694 45.4364C156.694 53.6718 163.302 60.1206 171.736 60.1206C180.256 60.1206 186.928 53.6233 186.928 45.3311C186.928 37.0671 180.3 30.5931 171.838 30.5931V30.5921ZM171.838 53.7446C167.322 53.7446 163.915 50.1247 163.915 45.3287C163.915 40.5108 167.205 37.0147 171.736 37.0147C176.281 37.0147 179.707 40.6331 179.707 45.434C179.707 50.2509 176.397 53.7446 171.838 53.7446ZM205.06 31.1666H198.126V24.0987C198.126 23.8454 197.921 23.6387 197.668 23.6387H191.366C191.113 23.6387 190.904 23.8454 190.904 24.0987V31.1666H187.877C187.624 31.1666 187.42 31.3733 187.42 31.6271V37.0263C187.42 37.2796 187.624 37.4868 187.877 37.4868H190.904V51.4591C190.904 57.1024 193.722 59.9653 199.284 59.9653C201.542 59.9653 203.415 59.4995 205.182 58.4999C205.328 58.4223 205.415 58.267 205.415 58.102V52.9585C205.415 52.8032 205.333 52.6528 205.196 52.5703C205.06 52.483 204.89 52.4781 204.749 52.5509C203.537 53.1575 202.364 53.4389 201.05 53.4389C199.031 53.4389 198.126 52.5218 198.126 50.4741V37.4892H205.06C205.313 37.4892 205.517 37.2825 205.517 37.0287V31.63C205.527 31.3762 205.323 31.1695 205.065 31.1695L205.06 31.1666ZM229.216 31.1943V30.3262C229.216 27.7724 230.199 26.6336 232.399 26.6336C233.713 26.6336 234.769 26.8936 235.951 27.2867C236.097 27.3323 236.248 27.3095 236.365 27.2226C236.487 27.1358 236.555 26.9965 236.555 26.849V21.5551C236.555 21.3528 236.428 21.1737 236.229 21.114C234.983 20.7438 233.387 20.3638 230.993 20.3638C225.177 20.3638 222.097 23.6314 222.097 29.8099V31.1394H219.07C218.817 31.1394 218.608 31.3462 218.608 31.5995V37.0263C218.608 37.2796 218.817 37.4868 219.07 37.4868H222.097V59.0336C222.097 59.2908 222.306 59.4946 222.559 59.4946H228.856C229.114 59.4946 229.319 59.2908 229.319 59.0336V37.4883H235.202L244.214 59.0336C243.192 61.2948 242.185 61.7461 240.813 61.7461C239.703 61.7461 238.53 61.4161 237.338 60.7611C237.226 60.7029 237.09 60.6932 236.973 60.7271C236.852 60.7708 236.749 60.8581 236.701 60.9746L234.564 65.6474C234.462 65.8706 234.55 66.1278 234.764 66.2442C236.993 67.4476 239.003 67.962 241.489 67.962C246.141 67.962 248.716 65.7978 250.979 59.9847L261.908 31.8231C261.967 31.6815 261.947 31.5213 261.86 31.3957C261.777 31.2709 261.636 31.1957 261.485 31.1957H254.925C254.726 31.1957 254.55 31.3204 254.487 31.5043L247.767 50.6391L240.409 31.4917C240.341 31.3136 240.17 31.1957 239.981 31.1957H229.216V31.1943ZM215.211 31.1666H208.909C208.656 31.1666 208.447 31.3733 208.447 31.6271V59.0336C208.447 59.2908 208.656 59.4946 208.909 59.4946H215.211C215.464 59.4946 215.673 59.2908 215.673 59.0336V31.629C215.673 31.3753 215.469 31.1686 215.211 31.1686V31.1666ZM212.097 18.6869C209.6 18.6869 207.576 20.7016 207.576 23.1903C207.576 25.6806 209.6 27.6977 212.097 27.6977C214.593 27.6977 216.613 25.6806 216.613 23.1903C216.613 20.7021 214.588 18.6869 212.097 18.6869ZM267.29 39.979C264.799 39.979 262.857 37.9822 262.857 35.5575C262.857 33.1328 264.823 31.1132 267.315 31.1132C269.806 31.1132 271.748 33.1095 271.748 35.5323C271.748 37.957 269.782 39.979 267.29 39.979ZM267.315 31.5529C265.042 31.5529 263.324 33.3531 263.324 35.5575C263.324 37.761 265.032 39.5369 267.29 39.5369C269.563 39.5369 271.281 37.7382 271.281 35.5323C271.281 33.3288 269.573 31.5529 267.315 31.5529ZM268.298 35.9869L269.553 37.7377H268.492L267.363 36.1315H266.395V37.7377H265.509V33.0969H267.582C268.668 33.0969 269.378 33.6486 269.378 34.5773C269.383 35.3382 268.94 35.803 268.303 35.9869H268.298ZM267.548 33.8932H266.395V35.361H267.548C268.123 35.361 268.468 35.08 268.468 34.6263C268.468 34.1489 268.123 33.8932 267.548 33.8932Z" fill="white"/>
</svg>
