<svg width="149" height="102" viewBox="0 0 149 102" fill="none" xmlns="http://www.w3.org/2000/svg">
<path d="M61.5512 54.24H61.0028C61.0028 55.0796 60.1383 56.3139 59.0004 57.9394C58.8896 58.0966 58.7753 58.2592 58.6592 58.4271C57.8197 59.6328 55.0187 61.73 52.8859 62.1444V62.8446C53.8731 63.4139 54.4686 64.2171 54.6722 65.2543C54.9318 66.2404 55.0616 67.4848 55.0616 68.9877V95.5822C55.0616 96.9314 54.8794 97.9687 54.515 98.6939C54.3737 99.041 54.1512 99.3492 53.8662 99.5926C53.5812 99.8359 53.2419 100.007 52.877 100.093V100.793H65.365V100.102C63.9097 99.6871 62.8975 99.0393 62.3283 98.158C61.8079 97.2232 61.5477 95.7453 61.5477 93.7244V64.1665H66.4654V62.1444H61.5477L61.5512 54.24Z" fill="white"/>
<path d="M53.7071 47.761C53.555 48.0929 53.3282 48.3852 53.0443 48.6148C52.7604 48.8445 52.4272 49.0053 52.0708 49.0846V49.7848H62.744V49.0846C62.4002 48.9968 62.0809 48.832 61.8101 48.6027C61.5393 48.3734 61.3242 48.0856 61.181 47.761C60.869 47.0345 60.713 45.9705 60.713 44.5688V34.7013H60.7469V19.1801L49.5754 9.64485H46.8102C45.2025 10.8613 40.9493 14.7287 40.1133 15.4914L40.0919 15.2056L39.8579 9.59125L31.5159 10.9167V11.6187C32.3146 12.0996 32.921 12.8436 33.2307 13.723C33.5439 14.5566 33.6999 15.9344 33.6987 17.8565V44.5206C33.6987 45.9246 33.5165 46.9905 33.1521 47.7181C32.9998 48.0501 32.7729 48.3424 32.4891 48.5723C32.2053 48.8022 31.8722 48.9635 31.5159 49.0435V49.7437H42.1962V49.0435C41.8533 48.9541 41.535 48.7885 41.265 48.559C40.995 48.3295 40.7803 48.0421 40.6367 47.7181C40.3259 46.9893 40.1705 45.9234 40.1705 44.5206V19.8661C40.5813 18.4108 41.1643 17.2116 41.9193 16.2684C42.4337 15.6254 44.7274 13.7676 46.3993 12.4333L54.2144 19.1801V34.6906H54.2608V44.5581C54.2549 45.9621 54.0703 47.0298 53.7071 47.761Z" fill="white"/>
<path d="M45.8308 79.379C44.5832 78.1888 43.2241 77.121 41.7724 76.1905C40.3671 75.258 39.0137 74.3512 37.7121 73.4699C36.551 72.6198 35.5019 71.6265 34.5897 70.5136C33.8084 69.4251 33.4184 68.1033 33.4196 66.548C33.4196 65.0451 33.862 63.8269 34.7469 62.8932C35.6829 61.9608 36.9059 61.4946 38.4159 61.4946C40.3392 61.4946 42.0564 62.4014 43.5676 64.2151C45.0788 66.0288 46.4055 68.8273 47.5475 72.6107H48.2495L47.3135 60.2459H46.7669C46.5073 60.9188 45.9613 61.2558 45.1288 61.257C44.5966 61.2256 44.0713 61.1211 43.5676 60.9462C42.857 60.6593 42.1262 60.4252 41.3812 60.2459C40.4434 59.9719 39.4696 59.8406 38.4927 59.8565C36.7135 59.8324 34.9608 60.289 33.4196 61.1784C31.9847 61.9857 30.7971 63.169 29.9846 64.6009C29.151 66.0514 28.7342 67.7365 28.7342 69.6562C28.7342 71.7283 29.1248 73.5146 29.906 75.0151C30.7374 76.4659 31.7903 77.778 33.0266 78.9039C34.3283 79.9911 35.6817 81.0278 37.0869 82.0138C38.499 82.9152 39.8544 83.9025 41.1454 84.9701C42.4163 85.9713 43.4774 87.2132 44.2678 88.6249C45.1014 89.9718 45.5182 91.6045 45.5182 93.523C45.5182 95.2854 45.024 96.7145 44.0356 97.8101C43.046 98.8461 41.745 99.3642 40.1326 99.3642C37.7389 99.3642 35.6311 98.2757 33.809 96.0988C31.987 93.9219 30.4002 90.6041 29.0485 86.1455H28.4233L29.438 100.615H29.9078C30.3234 99.9917 31.0516 99.6803 32.0924 99.6803C32.976 99.6803 34.0687 99.8881 35.3703 100.304C36.8566 100.79 38.4134 101.026 39.9772 101.002C42.0588 101.002 43.854 100.536 45.3628 99.6035C46.8682 98.6208 48.0813 97.2511 48.8747 95.6379C49.7583 93.9267 50.2008 91.9308 50.2019 89.6502C50.2019 87.2685 49.7851 85.2726 48.9515 83.6626C48.2025 82.0437 47.1421 80.5882 45.8308 79.379V79.379Z" fill="white"/>
<path d="M20.0955 61.5754C18.4819 60.4357 16.608 59.8653 14.474 59.8641C11.9732 59.8641 9.76172 60.7454 7.83966 62.5078C5.96643 64.2715 4.4832 66.7086 3.38998 69.8192C2.29914 72.8773 1.75314 76.4285 1.75195 80.4727C1.75195 84.6705 2.29795 88.3253 3.38998 91.437C4.4832 94.4951 6.01883 96.8537 7.99686 98.5125C10.0213 100.173 12.3888 101.002 15.0992 101.001C17.6 101.001 19.684 100.198 21.3513 98.5911C23.0185 96.9847 24.2933 94.8334 25.1757 92.1372L24.7077 91.9032C23.0405 94.1325 21.0893 95.2472 18.854 95.2472C16.6188 95.2472 14.5889 94.3915 12.7645 92.6803C10.9961 90.9702 9.56701 88.6373 8.47736 85.6815C7.38772 82.7258 6.81491 79.3318 6.75894 75.4996H25.1811V73.7133C25.1811 70.9136 24.7387 68.4771 23.8539 66.4038C22.9691 64.3305 21.7163 62.721 20.0955 61.5754ZM17.8304 72.5397C16.9468 73.3185 15.3862 73.7592 13.1485 73.8616L6.74645 74.0956C6.90364 70.2586 7.63245 67.226 8.93288 64.9979C10.2333 62.7174 11.9005 61.5766 13.9345 61.5754C14.6839 61.5522 15.427 61.7182 16.0954 62.0578C16.7638 62.3975 17.3359 62.8999 17.759 63.5189C18.7462 64.7633 19.2404 66.4746 19.2416 68.6527C19.2404 70.414 18.7712 71.7097 17.834 72.5397H17.8304Z" fill="white"/>
<path d="M77.1555 49.0503C75.7539 48.6347 74.7928 48.0107 74.2724 47.1783C73.8044 46.2934 73.5704 44.8644 73.5704 42.8911V19.8961C73.9848 18.2289 74.6083 16.8778 75.4407 15.843C76.2731 14.8081 77.1311 14.2883 78.0147 14.2835C78.5863 14.2835 79.0282 14.4133 79.3402 14.6729C79.6974 14.8801 80.2226 14.9855 80.8996 14.9855C81.6272 14.9855 82.1988 14.7515 82.6145 14.2835C83.0393 13.7875 83.2619 13.1498 83.2379 12.4972C83.2379 11.6124 82.9777 10.9366 82.4573 10.4697C81.9904 9.94934 81.289 9.68973 80.353 9.69092C79.0002 9.69092 77.7009 10.3661 76.4553 11.7166C75.2585 13.017 74.2706 14.8367 73.4918 17.1755L73.2578 9.61234L64.9158 10.9378V11.6398C65.6993 12.1033 66.3035 12.8177 66.6306 13.6672C66.9438 14.5008 67.0998 15.8781 67.0986 17.799V44.5417C67.0986 45.9457 66.9164 47.0115 66.552 47.7392C66.3997 48.0711 66.1728 48.3635 65.889 48.5934C65.6052 48.8233 65.2721 48.9846 64.9158 49.0646V49.7648H77.1555V49.0503Z" fill="white"/>
<path d="M2.09354 38.9919C2.09354 42.7336 2.84737 45.5917 4.35501 47.5661C5.86264 49.5406 8.2277 50.5284 11.4502 50.5296C13.3322 50.5413 15.176 49.999 16.7519 48.9702C18.3695 47.8757 19.6648 46.3683 20.5032 44.6044L20.7372 49.749H29.0792V49.0487C28.2891 48.6291 27.6793 47.9355 27.3644 47.0981C27.1036 46.2157 26.9732 44.8384 26.9732 42.9664V9.59827L18.3203 10.9237V11.6257C19.1122 12.0951 19.6968 12.8469 19.9566 13.73C20.2698 14.5636 20.4258 15.9414 20.4246 17.8635V43.5862C19.7245 44.6015 18.7877 45.431 17.6951 46.0031C16.6545 46.5236 15.5057 46.791 14.3422 46.7837C12.3178 46.7837 10.8369 46.0817 9.89969 44.6777C9.01607 43.2236 8.57425 41.067 8.57425 38.2077V9.59827L0 10.9237V11.6257C0.792384 12.0949 1.37767 12.8467 1.63805 13.73C1.95125 14.5636 2.10725 15.9414 2.10606 17.8635L2.09354 38.9919Z" fill="white"/>
<path d="M129.596 61.5754C127.982 60.4357 126.109 59.8653 123.976 59.8641C121.475 59.8641 119.263 60.7454 117.34 62.5078C115.468 64.2715 113.985 66.7086 112.892 69.8192C111.799 72.8773 111.252 76.4285 111.252 80.4727C111.252 84.6705 111.799 88.3253 112.892 91.437C113.983 94.4951 115.518 96.8537 117.497 98.5125C119.522 100.173 121.889 101.002 124.599 101.001C127.1 101.001 129.184 100.198 130.852 98.5911C132.519 96.9847 133.794 94.8334 134.676 92.1372L134.208 91.9032C132.541 94.1325 130.59 95.2472 128.354 95.2472C126.119 95.2472 124.089 94.3915 122.265 92.6803C120.496 90.9702 119.067 88.6373 117.978 85.6815C116.888 82.7258 116.316 79.3318 116.261 75.4996H134.681V73.7133C134.681 70.9136 134.239 68.4771 133.354 66.4038C132.469 64.3305 131.217 62.721 129.596 61.5754ZM127.332 72.5397C126.446 73.3185 124.885 73.7592 122.649 73.8616L116.248 74.0956C116.404 70.2586 117.133 67.226 118.433 64.9979C119.734 62.7174 121.401 61.5766 123.435 61.5754C124.184 61.5522 124.927 61.7182 125.596 62.0578C126.264 62.3975 126.836 62.8999 127.259 63.5189C128.249 64.7633 128.743 66.4746 128.742 68.6527C128.734 70.414 128.261 71.7097 127.325 72.5397H127.332Z" fill="white"/>
<path d="M141.311 98.5868C141.286 98.269 141.157 98.0529 140.925 97.9501C141.235 97.8229 141.401 97.5687 141.401 97.1989C141.405 97.0672 141.378 96.9364 141.322 96.817C141.266 96.6976 141.184 96.5929 141.08 96.5114C140.83 96.3413 140.532 96.2566 140.231 96.2698H138.801V99.517H139.445V98.2563H140.241C140.299 98.2513 140.357 98.2576 140.412 98.2751C140.467 98.2925 140.518 98.3207 140.562 98.358C140.63 98.4655 140.67 98.5883 140.678 98.7151L140.703 99.0455C140.693 99.2125 140.738 99.3782 140.832 99.517H141.502C141.395 99.3836 141.34 99.2162 141.347 99.0455L141.311 98.5868ZM140.243 97.7085H139.445V96.8419H140.204C140.551 96.8419 140.732 96.9944 140.732 97.274C140.732 97.5537 140.565 97.7085 140.241 97.7085H140.243Z" fill="white"/>
<path d="M140.051 94.8554C139.631 94.8447 139.213 94.9181 138.822 95.0713C138.43 95.2245 138.074 95.4544 137.772 95.7475C137.468 96.0252 137.227 96.3648 137.064 96.7435C136.902 97.1222 136.823 97.5312 136.832 97.9431C136.823 98.3524 136.902 98.7589 137.064 99.1349C137.227 99.5108 137.468 99.8472 137.772 100.121C138.377 100.72 139.137 101.012 140.051 101.012C140.471 101.023 140.889 100.95 141.281 100.797C141.672 100.644 142.029 100.414 142.33 100.121C142.627 99.8428 142.863 99.5051 143.022 99.13C143.182 98.7548 143.261 98.3505 143.254 97.9431C143.263 97.5328 143.185 97.1253 143.025 96.747C142.866 96.3688 142.629 96.0283 142.33 95.7475C141.719 95.1599 140.899 94.839 140.051 94.8554V94.8554ZM141.853 99.6695C141.615 99.9011 141.333 100.082 141.023 100.203C140.714 100.323 140.383 100.38 140.051 100.37C139.317 100.37 138.712 100.139 138.248 99.6695C138.011 99.4486 137.823 99.18 137.696 98.8813C137.57 98.5825 137.508 98.2604 137.515 97.9361C137.509 97.6086 137.571 97.2834 137.698 96.9812C137.824 96.6789 138.012 96.406 138.248 96.1796C138.486 95.9474 138.768 95.7656 139.078 95.6451C139.388 95.5245 139.719 95.4678 140.051 95.4782C140.721 95.4643 141.369 95.7165 141.853 96.1796C142.085 96.4084 142.269 96.682 142.393 96.9839C142.517 97.2859 142.579 97.6098 142.574 97.9361C142.58 98.2592 142.519 98.58 142.395 98.8784C142.271 99.1767 142.086 99.4461 141.853 99.6695Z" fill="white"/>
<path d="M146.971 47.8014C146.659 47.1786 146.503 46.217 146.503 44.9166V0L137.929 0.391212V1.09143C138.364 1.3379 138.742 1.67394 139.037 2.07734C139.333 2.48074 139.54 2.94228 139.644 3.43148C139.873 4.66825 139.977 5.92503 139.954 7.18272V44.9255C139.954 46.2783 139.799 47.2662 139.488 47.889C139.322 48.1804 139.098 48.4346 138.83 48.6359C138.562 48.8371 138.255 48.9812 137.929 49.059V49.7593H148.609V49.059C148.266 48.9687 147.945 48.811 147.663 48.5951C147.382 48.3792 147.147 48.1094 146.971 47.8014V47.8014Z" fill="white"/>
<path d="M105.64 53.6716H105.093C105.093 54.5112 104.229 55.7473 103.091 57.371L103.077 57.3907L102.751 57.8569C101.91 59.0627 99.111 61.1598 96.9763 61.5742V62.2744C97.9659 62.8449 98.5614 63.6481 98.7626 64.6842C99.0234 65.6702 99.1538 66.9147 99.1538 68.4175V95.012C99.1538 96.3601 98.9716 97.3973 98.6072 98.1237C98.4654 98.4708 98.2425 98.7789 97.9572 99.0222C97.6719 99.2656 97.3325 99.4371 96.9674 99.5224V100.223H109.457V99.5224C108 99.108 106.987 98.4601 106.421 97.5789C105.899 96.6465 105.639 95.1692 105.64 93.1471V63.5981H110.558V61.576H105.64V53.6716Z" fill="white"/>
<path d="M106.255 41.6434L105.787 41.4094C104.12 43.6447 102.17 44.7623 99.9384 44.7623C97.7067 44.7623 95.6822 43.9049 93.865 42.19C92.0989 40.474 90.6699 38.1345 89.5778 35.1717C88.4858 32.2088 87.9142 28.8047 87.863 24.9594H106.262V23.1731C106.262 20.365 105.82 17.9237 104.936 15.8492C104.053 13.7747 102.805 12.1593 101.194 11.003C99.5829 9.85737 97.7115 9.28516 95.5798 9.28635C93.079 9.28635 90.8699 10.17 88.9526 11.9372C87.083 13.7057 85.6015 16.1469 84.5083 19.2611C83.4175 22.3287 82.8721 25.8894 82.8721 29.9431C82.8721 34.1541 83.4175 37.8184 84.5083 40.9361C85.5992 44.0037 87.1324 46.3688 89.1081 48.0312C91.1325 49.6985 93.4976 50.5321 96.2032 50.5321C98.7041 50.5321 100.783 49.7264 102.441 48.1152C104.099 46.504 105.37 44.3467 106.255 41.6434ZM90.0369 14.4327C91.3374 12.1462 93.001 11.003 95.0279 11.003C95.777 10.9804 96.5197 11.1471 97.1873 11.4878C97.8549 11.8284 98.4257 12.332 98.847 12.9518C99.8342 14.1987 100.328 15.9141 100.33 18.0982C100.33 19.8642 99.8616 21.1635 98.9256 21.9959C98.0419 22.7747 96.4825 23.2165 94.2472 23.3213L87.8541 23.5553C88.0101 19.71 88.7377 16.6691 90.0369 14.4327V14.4327Z" fill="white"/>
<path d="M93.4083 94.0816L90.2876 70.3631C89.3504 63.3644 85.4735 59.865 78.657 59.865C76.8885 59.8442 75.1348 60.1884 73.5053 60.876C72.0809 61.4374 70.8196 62.3462 69.8362 63.5198C68.9758 64.5429 68.5056 65.8377 68.509 67.1746C68.4836 67.8277 68.707 68.4661 69.1342 68.9609C69.3701 69.1935 69.651 69.3756 69.9597 69.496C70.2683 69.6164 70.5983 69.6725 70.9295 69.6611C72.2811 69.6611 73.0355 68.8054 73.1927 67.0942C73.3999 65.1757 73.8423 63.7758 74.5199 62.8946C75.2487 61.9621 76.3152 61.4959 77.7192 61.4959C79.1768 61.4959 80.348 62.0913 81.2328 63.2822C82.1177 64.4219 82.7941 66.2623 83.2621 68.8037C77.9032 72.2762 73.9483 75.7756 71.3975 79.3018C68.8466 82.7743 67.5718 86.4547 67.573 90.3429C67.573 92.4162 68.0148 94.2567 68.8984 95.8643C69.8005 97.4358 71.0925 98.748 72.6497 99.6745C74.329 100.573 76.2097 101.028 78.114 100.996C80.0339 101.017 81.9042 100.387 83.4211 99.2101C84.9823 97.9668 86.2327 96.2561 87.1723 94.078C87.6403 96.3586 88.3167 97.9662 89.2015 98.9011C90.1376 99.7811 91.4642 100.222 93.1814 100.223H95.8359V99.5227C94.6855 99.2131 93.8763 97.3994 93.4083 94.0816ZM84.2767 96.0251C83.185 96.7359 81.9104 97.1145 80.6076 97.1148C78.6296 97.1148 77.0684 96.3109 75.924 94.7033C74.7795 93.0956 74.2073 90.9443 74.2073 88.2493C74.201 85.0114 74.949 81.8164 76.392 78.9177C77.902 75.9108 80.2438 72.9556 83.4175 70.0523L86.9312 92.8366L87.008 93.0706C86.4006 94.2976 85.4523 95.3234 84.2767 96.0251V96.0251Z" fill="white"/>
<path d="M134.598 43.591L131.479 19.8118C130.543 12.794 126.673 9.28509 119.868 9.28509C118.101 9.26397 116.348 9.60945 114.722 10.2997C113.298 10.8624 112.038 11.7739 111.058 12.9506C110.197 13.9771 109.728 15.2749 109.732 16.6143C109.708 17.267 109.931 17.9048 110.356 18.4006C110.59 18.6329 110.87 18.8149 111.177 18.9356C111.484 19.0563 111.812 19.1132 112.142 19.1026C113.493 19.1026 114.246 18.2452 114.402 16.5303C114.61 14.6071 115.052 13.2036 115.727 12.32C116.456 11.384 117.522 10.916 118.925 10.916C120.38 10.916 121.549 11.5114 122.433 12.7023C123.318 13.8455 123.994 15.6914 124.461 18.2398C119.102 21.7207 115.151 25.229 112.608 28.7647C110.064 32.248 108.79 35.9397 108.789 39.8398C108.789 41.9191 109.231 43.7649 110.115 45.3773C111.014 46.951 112.302 48.2668 113.857 49.1982C115.533 50.0983 117.412 50.5546 119.314 50.5237C121.233 50.5444 123.101 49.9148 124.616 48.7374C126.176 47.4905 127.426 45.7751 128.367 43.591C128.835 45.8787 129.511 47.4899 130.395 48.4248C131.331 49.3096 132.656 49.7514 134.371 49.7502H137.022V49.05C135.874 48.738 135.066 46.9183 134.598 43.591ZM125.475 45.5399C124.386 46.2525 123.113 46.6324 121.811 46.6331C119.836 46.6331 118.276 45.8269 117.133 44.2144C115.99 42.602 115.418 40.4454 115.418 37.7445C115.411 34.4986 116.159 31.2955 117.601 28.3878C119.109 25.3725 121.448 22.4097 124.618 19.4992L128.126 42.3442L128.205 42.5782C127.598 43.8071 126.651 44.8354 125.475 45.5399Z" fill="white"/>
</svg>
